<?xml version="1.0" standalone="no"?>
<!DOCTYPE svg PUBLIC "-//W3C//DTD SVG 20010904//EN"
 "http://www.w3.org/TR/2001/REC-SVG-20010904/DTD/svg10.dtd">
<svg version="1.0" xmlns="http://www.w3.org/2000/svg"
 width="600.000000pt" height="600.000000pt" viewBox="0 0 600.000000 600.000000"
 preserveAspectRatio="xMidYMid meet">
<g transform="translate(0.000000,600.000000) scale(0.100000,-0.100000)"
fill="#000000" stroke="none">
<path d="M202 3383 l3 -2418 22 -77 c53 -186 127 -311 257 -435 118 -113 247
-185 416 -230 61 -16 200 -18 2045 -21 1388 -2 2005 0 2065 8 403 52 727 376
780 780 8 60 10 661 8 2065 -3 1845 -5 1984 -21 2045 -45 169 -117 298 -230
416 -124 130 -249 204 -435 257 l-77 22 -2418 3 -2417 2 2 -2417z m3063 1802
c418 -80 763 -382 898 -787 48 -145 52 -181 52 -542 l0 -339 -100 -24 c-158
-36 -374 -75 -385 -68 -6 4 -10 132 -10 349 0 306 -2 351 -19 418 -58 225
-226 406 -446 480 -60 20 -90 23 -210 23 -127 0 -147 -3 -218 -28 -215 -76
-382 -256 -438 -475 -17 -67 -19 -112 -19 -427 0 -193 -2 -354 -5 -357 -10
-10 -423 63 -472 83 l-23 9 0 327 c0 416 14 503 110 708 33 70 106 185 117
185 3 0 0 -7 -7 -15 -36 -44 11 1 150 142 85 86 146 151 134 143 -11 -8 -7 -3
9 11 75 69 321 168 467 188 41 6 86 13 100 15 46 8 234 -3 315 -19z m-1517
-1914 c481 -120 971 -172 1437 -151 405 18 646 50 1010 136 126 29 200 42 222
38 43 -8 112 -70 145 -130 15 -27 32 -78 38 -114 8 -46 10 -355 8 -1045 l-3
-980 -23 -50 c-27 -60 -82 -118 -137 -148 l-40 -22 -1405 0 c-1380 0 -1406 0
-1445 20 -58 28 -119 94 -141 151 -18 47 -19 93 -22 1058 -3 1113 -6 1054 59
1157 27 42 81 88 119 102 30 11 63 7 178 -22z"/>
<path d="M2942 2698 c-110 -16 -207 -90 -260 -197 -24 -49 -27 -68 -27 -151 0
-86 3 -101 30 -154 18 -35 51 -77 81 -104 l51 -45 -13 -46 c-75 -270 -144
-555 -139 -571 14 -45 46 -50 334 -50 152 0 281 4 295 10 54 20 53 36 -19 311
-37 140 -73 274 -79 299 l-13 44 53 49 c31 28 65 72 81 105 25 50 28 68 28
152 0 81 -4 103 -26 150 -67 141 -219 221 -377 198z"/>
</g>
</svg>
