<?xml version="1.0" standalone="no"?>
<!DOCTYPE svg PUBLIC "-//W3C//DTD SVG 20010904//EN"
 "http://www.w3.org/TR/2001/REC-SVG-20010904/DTD/svg10.dtd">
<svg version="1.0" xmlns="http://www.w3.org/2000/svg"
 width="600.000000pt" height="536.000000pt" viewBox="0 0 600.000000 536.000000"
 preserveAspectRatio="xMidYMid meet">
<metadata>
Created by potrace 1.16, written by Peter Selinger 2001-2019
</metadata>
<g transform="translate(0.000000,536.000000) scale(0.100000,-0.100000)"
fill="#000000" stroke="none">
<path d="M755 5353 c-33 -2 -62 -9 -66 -15 -6 -9 -33 -17 -121 -35 -16 -3 -28
-12 -28 -19 0 -8 -10 -14 -25 -14 -16 0 -25 -6 -25 -15 0 -9 -9 -15 -25 -15
-14 0 -25 -4 -25 -10 0 -5 -7 -10 -15 -10 -15 0 -25 -6 -60 -37 -7 -7 -18 -13
-24 -13 -6 0 -11 -7 -11 -15 0 -8 -7 -15 -15 -15 -8 0 -15 -5 -15 -11 0 -14
-25 -39 -39 -39 -6 0 -11 -7 -11 -15 0 -8 -7 -15 -15 -15 -8 0 -15 -5 -15 -10
0 -10 -8 -22 -37 -55 -7 -7 -13 -21 -13 -29 0 -9 -6 -16 -13 -16 -14 0 -37
-40 -37 -66 0 -8 -7 -17 -15 -20 -8 -4 -15 -14 -15 -24 0 -10 -6 -25 -14 -32
-7 -8 -16 -29 -20 -48 -7 -34 -24 -162 -25 -187 -1 -7 -8 -13 -16 -13 -13 0
-15 -214 -15 -1870 0 -1577 2 -1870 14 -1870 9 0 15 -19 20 -62 11 -111 29
-188 43 -188 8 0 13 -13 13 -34 0 -21 6 -36 15 -40 8 -3 15 -12 15 -20 0 -26
23 -66 37 -66 7 0 13 -7 13 -16 0 -8 6 -22 13 -29 29 -33 37 -45 37 -55 0 -5
7 -10 15 -10 8 0 15 -7 15 -15 0 -8 5 -15 11 -15 14 0 39 -25 39 -39 0 -6 7
-11 15 -11 8 0 15 -7 15 -15 0 -8 5 -15 11 -15 6 0 17 -6 24 -12 35 -32 45
-38 60 -38 8 0 15 -4 15 -10 0 -5 11 -10 25 -10 15 0 25 -6 25 -14 0 -8 9 -18
20 -21 11 -3 20 -10 20 -15 0 -4 15 -10 33 -13 78 -13 120 -26 128 -38 7 -12
214 -14 1259 -14 1045 0 1252 2 1259 14 8 12 35 20 126 38 16 3 35 12 43 19 7
8 20 14 28 14 8 0 14 4 14 10 0 5 11 12 25 16 14 3 25 10 25 15 0 5 5 9 11 9
6 0 17 6 24 12 33 30 45 38 55 38 5 0 10 7 10 15 0 8 7 15 15 15 18 0 65 47
65 65 0 8 7 15 15 15 8 0 15 5 15 11 0 13 25 39 38 39 5 0 13 11 16 25 4 14
10 25 15 25 5 0 15 20 22 45 7 25 19 45 26 45 7 0 13 11 13 24 0 14 6 31 14
38 14 15 24 55 33 131 3 28 11 51 19 54 22 8 21 808 -1 829 -8 9 -15 26 -15
40 0 13 -4 24 -10 24 -5 0 -10 8 -10 18 0 10 -11 24 -24 31 -13 7 -29 23 -36
35 -6 13 -30 28 -58 36 -58 18 -227 19 -244 2 -7 -7 -18 -12 -26 -12 -18 0
-92 -77 -92 -96 0 -8 -6 -14 -14 -14 -24 0 -29 -58 -35 -449 -5 -294 -9 -385
-18 -389 -7 -2 -13 -12 -13 -23 0 -11 -7 -22 -15 -25 -8 -4 -15 -15 -15 -25 0
-10 -4 -19 -10 -19 -5 0 -10 -7 -10 -15 0 -8 -7 -15 -15 -15 -8 0 -15 -4 -15
-10 0 -5 -7 -10 -15 -10 -8 0 -15 -7 -15 -15 0 -9 -9 -15 -25 -15 -14 0 -25
-6 -25 -14 0 -9 -21 -15 -67 -19 -89 -9 -2117 -9 -2205 0 -47 4 -68 10 -68 19
0 8 -7 14 -15 14 -9 0 -18 7 -21 15 -4 8 -15 15 -25 15 -10 0 -19 5 -19 10 0
6 -7 10 -15 10 -8 0 -15 7 -15 15 0 8 -4 15 -10 15 -5 0 -10 9 -10 19 0 10 -7
21 -15 25 -9 3 -15 18 -15 40 0 21 -6 36 -15 40 -13 5 -15 220 -15 1856 0
1636 2 1851 15 1856 9 4 15 19 15 40 0 22 6 37 15 40 8 4 15 15 15 25 0 10 5
19 10 19 6 0 10 7 10 15 0 8 7 15 15 15 8 0 15 5 15 10 0 6 9 10 19 10 10 0
21 7 25 15 3 8 12 15 21 15 8 0 15 6 15 14 0 9 21 15 68 19 94 9 2153 7 2226
-2 33 -4 62 -13 64 -19 2 -7 10 -12 18 -12 8 0 14 -7 14 -15 0 -8 7 -15 15
-15 8 0 15 -4 15 -10 0 -5 7 -10 15 -10 8 0 15 -7 15 -15 0 -8 5 -15 10 -15 6
0 10 -9 10 -19 0 -10 7 -21 15 -25 8 -3 15 -14 15 -25 0 -11 6 -21 13 -23 9
-4 13 -95 18 -389 6 -391 11 -449 35 -449 8 0 14 -6 14 -14 0 -19 74 -96 92
-96 8 0 19 -5 26 -12 17 -17 186 -16 244 2 28 8 52 23 58 36 7 12 23 28 36 35
13 7 24 21 24 31 0 10 5 18 10 18 6 0 10 11 10 24 0 14 7 31 15 40 22 21 23
821 1 829 -8 3 -16 26 -19 54 -9 76 -19 116 -33 131 -8 7 -14 22 -14 32 0 10
-6 20 -12 23 -7 2 -19 25 -27 51 -7 25 -17 46 -22 46 -5 0 -11 11 -15 25 -3
14 -11 25 -16 25 -13 0 -38 26 -38 39 0 6 -7 11 -15 11 -8 0 -15 7 -15 15 0
18 -47 65 -65 65 -8 0 -15 7 -15 15 0 8 -5 15 -11 15 -6 0 -17 6 -24 13 -33
29 -45 37 -55 37 -5 0 -10 4 -10 9 0 5 -11 12 -25 15 -14 4 -25 11 -25 16 0 6
-6 10 -14 10 -8 0 -21 6 -28 14 -8 7 -27 16 -43 19 -91 18 -118 26 -126 38 -7
12 -206 14 -1201 15 -656 0 -1220 -1 -1253 -3z"/>
<path d="M4695 3850 c-3 -5 -19 -10 -36 -10 -19 0 -29 -5 -29 -15 0 -8 -4 -15
-10 -15 -5 0 -10 -7 -10 -15 0 -8 -7 -15 -15 -15 -8 0 -15 -4 -15 -10 0 -5 -6
-10 -13 -10 -7 0 -21 -22 -31 -50 -10 -27 -22 -50 -27 -50 -16 0 -11 -140 6
-156 8 -9 15 -25 15 -37 0 -33 23 -87 37 -87 7 0 13 -4 13 -10 0 -5 7 -10 15
-10 8 0 15 -7 15 -15 0 -8 5 -15 10 -15 6 0 10 -7 10 -15 0 -8 7 -15 15 -15 8
0 15 -4 15 -10 0 -5 7 -10 15 -10 8 0 15 -7 15 -15 0 -8 5 -15 10 -15 6 0 10
-7 10 -15 0 -8 7 -15 15 -15 8 0 15 -4 15 -10 0 -5 7 -10 15 -10 8 0 15 -5 15
-11 0 -14 25 -39 39 -39 6 0 11 -7 11 -15 0 -8 7 -15 15 -15 8 0 15 -5 15 -11
0 -14 25 -39 39 -39 6 0 11 -7 11 -15 0 -8 7 -15 15 -15 8 0 15 -6 15 -14 0
-8 9 -18 20 -21 11 -3 20 -13 20 -20 0 -12 -258 -15 -1791 -17 -1693 -3 -1791
-4 -1800 -20 -6 -10 -17 -18 -24 -18 -8 0 -15 -4 -15 -10 0 -5 -7 -10 -15 -10
-8 0 -15 -7 -15 -15 0 -8 -4 -15 -10 -15 -5 0 -10 -7 -10 -15 0 -8 -6 -15 -14
-15 -8 0 -18 -9 -21 -20 -3 -11 -10 -20 -15 -20 -4 0 -11 -17 -15 -37 -14 -76
-4 -223 15 -223 5 0 12 -9 15 -20 3 -11 13 -20 21 -20 8 0 14 -7 14 -15 0 -8
5 -15 10 -15 6 0 10 -7 10 -15 0 -8 7 -15 15 -15 8 0 15 -4 15 -10 0 -5 7 -10
15 -10 7 0 18 -8 24 -17 9 -17 107 -18 1800 -21 1533 -2 1791 -5 1791 -17 0
-7 -9 -17 -20 -20 -11 -3 -20 -13 -20 -21 0 -8 -7 -14 -15 -14 -8 0 -15 -7
-15 -15 0 -8 -5 -15 -11 -15 -14 0 -39 -25 -39 -39 0 -6 -7 -11 -15 -11 -8 0
-15 -7 -15 -15 0 -8 -5 -15 -11 -15 -14 0 -39 -25 -39 -39 0 -6 -7 -11 -15
-11 -8 0 -15 -4 -15 -10 0 -5 -7 -10 -15 -10 -8 0 -15 -7 -15 -15 0 -8 -4 -15
-10 -15 -5 0 -10 -7 -10 -15 0 -8 -7 -15 -15 -15 -8 0 -15 -4 -15 -10 0 -5 -7
-10 -15 -10 -8 0 -15 -7 -15 -15 0 -8 -4 -15 -10 -15 -5 0 -10 -7 -10 -15 0
-8 -7 -15 -15 -15 -8 0 -15 -4 -15 -10 0 -5 -6 -10 -13 -10 -14 0 -37 -54 -37
-88 0 -13 -6 -22 -15 -22 -12 0 -15 -16 -15 -85 0 -47 4 -85 9 -85 5 0 17 -22
27 -50 10 -27 24 -50 31 -50 7 0 13 -4 13 -10 0 -5 7 -10 15 -10 8 0 15 -7 15
-15 0 -8 5 -15 10 -15 6 0 10 -7 10 -15 0 -10 10 -15 28 -15 15 0 33 -5 39
-11 7 -7 43 -9 99 -6 111 6 154 15 154 33 0 8 7 14 15 14 8 0 15 7 15 15 0 8
7 15 16 15 21 0 914 893 914 914 0 9 6 16 13 16 15 0 37 41 37 70 0 29 11 50
26 50 10 0 14 14 14 50 0 36 -4 50 -14 50 -15 0 -26 21 -26 50 0 29 -22 70
-37 70 -7 0 -13 7 -13 16 0 21 -923 944 -944 944 -9 0 -16 7 -16 15 0 9 -9 15
-25 15 -14 0 -25 5 -25 10 0 6 -40 10 -99 10 -56 0 -103 -4 -106 -10z"/>
</g>
</svg>
